HIERARCHY
ROOT Hips
{
	OFFSET 0.000000 0.000000 0.000000 
	CHANNELS 6 Xposition Yposition Zposition Zrotation Yrotation Xrotation
	JOINT LeftUpLeg
	{
		OFFSET 1.363060 -1.794630 0.839290 
		CHANNELS 3 Zrotation Yrotation Xrotation
		JOINT LeftLeg
		{
			OFFSET 2.448110 -6.726130 0.000000 
			CHANNELS 3 Zrotation Yrotation Xrotation
			JOINT LeftFoot
			{
				OFFSET 2.562200 -7.039590 0.000000 
				CHANNELS 3 Zrotation Yrotation Xrotation
				JOINT LeftToeBase
				{
					OFFSET 0.157640 -0.433110 2.322550 
					CHANNELS 3 Zrotation Yrotation Xrotation
					End Site
					{
						OFFSET 0.000000 0.000000 0.000000 
					}
				}
			}
		}
	}
	JOINT RightUpLeg
	{
		OFFSET -1.305520 -1.794630 0.839290 
		CHANNELS 3 Zrotation Yrotation Xrotation
		JOINT RightLeg
		{
			OFFSET -2.542530 -6.985550 0.000000 
			CHANNELS 3 Zrotation Yrotation Xrotation
			JOINT RightFoot
			{
				OFFSET -2.568260 -7.056230 0.000000 
				CHANNELS 3 Zrotation Yrotation Xrotation
				JOINT RightToeBase
				{
					OFFSET -0.164730 -0.452590 2.363150 
					CHANNELS 3 Zrotation Yrotation Xrotation
					End Site
					{
						OFFSET 0.000000 0.000000 0.000000 
					}
				}
			}
		}
	}
	JOINT Spine
	{
		OFFSET 0.028270 2.035590 -0.193380 
		CHANNELS 3 Zrotation Yrotation Xrotation
		JOINT Spine1
		{
			OFFSET 0.056720 2.048850 -0.042750 
			CHANNELS 3 Zrotation Yrotation Xrotation
			JOINT Neck1
			{
				OFFSET -0.054170 1.746240 0.172020 
				CHANNELS 3 Zrotation Yrotation Xrotation
				JOINT Head
				{
					OFFSET 0.104070 1.761360 -0.123970 
					CHANNELS 3 Zrotation Yrotation Xrotation
					End Site
					{
						OFFSET 0.000000 0.000000 0.000000 
					}
				}
			}
			JOINT LeftArm
			{
				OFFSET 3.362410 1.200890 -0.311210 
				CHANNELS 3 Zrotation Yrotation Xrotation
				JOINT LeftForeArm
				{
					OFFSET 4.983000 -0.000000 -0.000000 
					CHANNELS 3 Zrotation Yrotation Xrotation
					JOINT LeftHand
					{
						OFFSET 3.483560 -0.000000 -0.000000 
						CHANNELS 3 Zrotation Yrotation Xrotation
						JOINT LeftHandIndex1
						{
							OFFSET 0.715260 -0.000000 -0.000000 
							CHANNELS 3 Zrotation Yrotation Xrotation
							End Site
							{
								OFFSET 0.000000 0.000000 0.000000 
							}
						}
					}
				}
			}
			JOINT RightArm
			{
				OFFSET -3.136600 1.374050 -0.404650 
				CHANNELS 3 Zrotation Yrotation Xrotation
				JOINT RightForeArm
				{
					OFFSET -5.241900 -0.000000 -0.000000 
					CHANNELS 3 Zrotation Yrotation Xrotation
					JOINT RightHand
					{
						OFFSET -3.444170 -0.000000 -0.000000 
						CHANNELS 3 Zrotation Yrotation Xrotation
						JOINT RightHandIndex1
						{
							OFFSET -0.622530 -0.000000 -0.000000 
							CHANNELS 3 Zrotation Yrotation Xrotation
							End Site
							{
								OFFSET 0.000000 0.000000 0.000000 
							}
						}
					}
				}
			}
		}
	}
}
MOTION
Frames: 10
Frame Time: 0.041667
10.090696 17.959325 27.150845 -178.721711 -4.031477 178.035360 -19.271560 -20.318497 -0.430816 -2.743730 6.874575 20.319920 -3.055495 11.269116 -3.999386 3.325000 -11.203500 -32.969300 28.422903 12.640615 4.692292 3.006646 -4.919936 18.033393 5.595922 -23.648621 -17.245550 -0.113800 -2.174900 5.989300 1.241843 3.552575 4.905468 -5.575648 1.283575 -12.635129 3.968055 22.608740 6.422252 -1.698500 11.434300 3.648100 -90.434375 8.489477 27.908754 24.309992 -23.849610 -6.314725 1.698362 0.680257 11.540053 -7.125000 0.000000 0.000000 90.491437 -14.150035 38.522788 -22.248858 24.965699 -6.194287 0.858970 -0.449703 19.673419 7.125000 0.000000 0.000000 
10.089068 17.960836 27.151077 -178.783139 -4.037012 178.067425 -19.334028 -20.436796 -0.402181 -2.743508 6.894130 20.370990 -3.004638 11.148210 -4.294056 3.154800 -10.941600 -32.083100 28.299959 12.480440 4.616357 3.006138 -4.902369 18.008745 5.447237 -23.190685 -17.293402 -0.161000 -2.585500 7.126700 1.045064 3.639151 4.781567 -5.634083 1.316458 -12.700743 3.907830 22.554092 6.312201 -1.731000 11.396200 3.610500 -90.426886 8.576122 27.683487 24.319113 -23.873455 -6.323175 1.709448 0.670924 11.615319 -7.125000 0.000000 0.000000 90.575115 -14.238428 38.620022 -22.262485 24.974487 -6.188213 0.861217 -0.451072 19.711824 7.125000 0.000000 0.000000 
10.090580 17.960720 27.150380 -178.672974 -4.124471 178.053492 -19.220862 -20.522670 -0.416319 -2.725850 6.922113 20.456114 -2.928630 10.935259 -4.298182 3.009000 -10.709600 -31.306600 28.415179 12.359009 4.660632 3.021799 -4.861951 17.900612 5.468786 -23.252580 -17.213878 -0.147900 -2.478300 6.829500 1.149042 3.649936 4.703813 -5.701319 1.310185 -12.747176 4.008168 22.561004 6.299944 -1.697900 11.399500 3.583400 -90.424099 8.613463 27.388416 24.263213 -23.832519 -6.317082 1.725292 0.673140 11.494129 -7.125000 0.000000 0.000000 90.531819 -14.224465 39.014510 -22.380967 25.121371 -6.255439 0.850922 -0.435387 18.416132 7.125000 0.000000 0.000000 
10.093370 17.961650 27.150031 -178.579490 -4.278108 178.095908 -19.086531 -20.532567 -0.534446 -2.710296 6.946584 20.517281 -2.883025 10.800451 -4.186621 3.046500 -10.770000 -31.508000 28.527094 12.294695 4.662854 3.039704 -4.828463 17.796319 5.532877 -23.449418 -17.155487 -0.129400 -2.319000 6.388000 1.245451 3.591999 4.693606 -5.726054 1.277107 -12.738453 4.070338 22.603531 6.323579 -1.661300 11.421400 3.594900 -90.398877 8.575377 27.213204 24.244998 -23.826956 -6.322880 1.731200 0.679478 11.356034 -7.125000 0.000000 0.000000 90.409518 -14.095622 39.603142 -22.330115 25.054779 -6.231136 0.843430 -0.437776 17.573169 7.125000 0.000000 0.000000 
10.094533 17.965138 27.148636 -178.542002 -4.419737 178.244698 -19.002658 -20.613324 -0.698994 -2.697566 6.976082 20.578918 -2.838707 10.675017 -4.122454 3.011500 -10.713700 -31.320200 28.526073 12.251085 4.563678 3.064893 -4.785131 17.647798 5.579255 -23.573629 -17.083989 -0.130300 -2.326900 6.410100 1.348558 3.556858 4.583712 -5.701928 1.264833 -12.660829 3.800903 22.688063 6.042475 -1.772100 11.439700 3.526000 -90.405073 8.556466 27.322362 24.287320 -23.856609 -6.328647 1.713639 0.687092 11.371822 -7.125000 0.000000 0.000000 90.273914 -14.043268 39.788409 -22.319891 25.055306 -6.252859 0.851961 -0.429651 18.119846 7.125000 0.000000 0.000000 
10.094300 17.971069 27.144333 -178.472779 -4.501086 178.462642 -18.893477 -20.759645 -0.870965 -2.695927 6.994191 20.595045 -2.851144 10.706414 -4.101088 2.985900 -10.672200 -31.182100 28.529479 12.266171 4.389601 3.086241 -4.762250 17.533774 5.595444 -23.606065 -17.009474 -0.142200 -2.430300 6.696400 1.461595 3.587974 4.303646 -5.716766 1.275640 -12.534138 3.531018 22.723274 5.773065 -1.903400 11.438200 3.443400 -90.447955 8.622290 27.412114 24.319327 -23.855304 -6.313291 1.688502 0.693884 11.628099 -7.125000 0.000000 0.000000 90.202516 -14.069650 39.661742 -22.310747 25.041131 -6.261012 0.858853 -0.433533 19.265424 7.125000 0.000000 0.000000 
10.095463 17.973278 27.138403 -178.383200 -4.551863 178.594944 -18.773809 -20.826634 -0.983804 -2.697947 7.002659 20.598580 -2.852661 10.711864 -4.173360 2.982600 -10.666900 -31.164500 28.605981 12.323138 4.336476 3.103255 -4.744809 17.457659 5.587726 -23.597729 -17.024624 -0.164700 -2.614400 7.206900 1.550164 3.642138 4.012493 -5.760783 1.288946 -12.480773 3.545391 22.658840 5.810549 -1.916400 11.411800 3.436500 -90.435030 8.777555 27.521816 24.351858 -23.867879 -6.310983 1.678827 0.692018 11.638189 -7.125000 0.000000 0.000000 90.167919 -14.100765 39.612202 -22.226298 24.938744 -6.232525 0.862710 -0.440388 20.252568 7.125000 0.000000 0.000000 
10.097207 17.972231 27.134682 -178.378253 -4.578676 178.617216 -18.757521 -20.805627 -1.010609 -2.698683 7.007494 20.610256 -2.830314 10.656956 -4.276271 2.949800 -10.613300 -30.986600 28.616254 12.301679 4.365980 3.112810 -4.720665 17.394820 5.590336 -23.603680 -17.008083 -0.170900 -2.662900 7.341500 1.555571 3.668847 3.897357 -5.758706 1.297844 -12.527759 3.646896 22.606810 5.958324 -1.872600 11.397200 3.477700 -90.391478 8.827239 27.527693 24.347492 -23.864713 -6.309005 1.689909 0.680897 11.490449 -7.125000 0.000000 0.000000 90.102696 -14.091753 39.846284 -22.151797 24.863686 -6.219502 0.862605 -0.440626 20.765192 7.125000 0.000000 0.000000 
10.098603 17.972813 27.131194 -178.398180 -4.627493 178.577579 -18.783943 -20.760776 -0.990685 -2.701427 7.002724 20.596515 -2.882840 10.798869 -4.258733 3.128000 -10.899500 -31.941500 28.611424 12.256507 4.414491 3.115688 -4.708003 17.380803 5.588750 -23.619606 -17.092358 -0.155400 -2.539700 6.999800 1.541384 3.654724 4.070536 -5.744319 1.297369 -12.543128 3.696174 22.623011 5.980229 -1.830800 11.403500 3.496500 -90.396451 8.664617 27.276319 24.287353 -23.819655 -6.294330 1.710372 0.672505 11.540633 -7.125000 0.000000 0.000000 89.994452 -14.016881 40.366694 -22.140269 24.850029 -6.217510 0.859228 -0.442777 20.371931 7.125000 0.000000 0.000000 
10.101742 17.972580 27.125031 -178.395256 -4.831557 178.455317 -18.806247 -20.790820 -0.878249 -2.698558 6.994392 20.590757 -2.884524 10.796294 -4.165076 3.280400 -11.135600 -32.738700 28.677942 12.191761 4.579636 3.121574 -4.686571 17.369268 5.583287 -23.675260 -17.333930 -0.155900 -2.544400 7.012900 1.586339 3.580640 4.293919 -5.726316 1.270671 -12.550785 3.646689 22.640482 5.859790 -1.843000 11.400900 3.457800 -90.430186 8.601212 27.135328 24.264492 -23.808271 -6.294830 1.717013 0.674193 11.615878 -7.125000 0.000000 0.000000 89.874970 -13.979308 40.802060 -22.163648 24.885702 -6.239704 0.859513 -0.434854 19.737411 7.125000 0.000000 0.000000 
